<svg viewBox="0 0 24 25" fill="none" xmlns="http://www.w3.org/2000/svg">
<path d="M9.16006 11.705C9.06006 11.695 8.94006 11.695 8.83006 11.705C6.45006 11.625 4.56006 9.67496 4.56006 7.27496C4.56006 4.82496 6.54006 2.83496 9.00006 2.83496C11.4501 2.83496 13.4401 4.82496 13.4401 7.27496C13.4301 9.67496 11.5401 11.625 9.16006 11.705Z" stroke-width="1.5" stroke-linecap="round" stroke-linejoin="round"/>
<path d="M16.41 4.83496C18.35 4.83496 19.91 6.40496 19.91 8.33496C19.91 10.225 18.41 11.765 16.54 11.835C16.46 11.825 16.37 11.825 16.28 11.835" stroke-width="1.5" stroke-linecap="round" stroke-linejoin="round"/>
<path d="M4.15997 15.395C1.73997 17.015 1.73997 19.655 4.15997 21.265C6.90997 23.105 11.42 23.105 14.17 21.265C16.59 19.645 16.59 17.005 14.17 15.395C11.43 13.565 6.91997 13.565 4.15997 15.395Z" stroke-width="1.5" stroke-linecap="round" stroke-linejoin="round"/>
<path d="M18.3401 20.835C19.0601 20.685 19.7401 20.395 20.3001 19.965C21.8601 18.795 21.8601 16.865 20.3001 15.695C19.7501 15.275 19.0801 14.995 18.3701 14.835" stroke-width="1.5" stroke-linecap="round" stroke-linejoin="round"/>
</svg>
