<svg viewBox="0 0 23 23" fill="none" xmlns="http://www.w3.org/2000/svg">
<mask id="mask0_574_516" style="mask-type:luminance" maskUnits="userSpaceOnUse" x="0" y="0" width="23" height="23">
<path d="M22.1354 9.375H11.4583V13.8021H17.6042C17.0312 16.6146 14.6354 18.2292 11.4583 18.2292C7.70833 18.2292 4.6875 15.2083 4.6875 11.4583C4.6875 7.70833 7.70833 4.6875 11.4583 4.6875C13.0729 4.6875 14.5312 5.26042 15.6771 6.19792L19.0104 2.86458C16.9792 1.09375 14.375 0 11.4583 0C5.10417 0 0 5.10417 0 11.4583C0 17.8125 5.10417 22.9167 11.4583 22.9167C17.1875 22.9167 22.3958 18.75 22.3958 11.4583C22.3958 10.7813 22.2917 10.0521 22.1354 9.375Z" fill="white"/>
</mask>
<g mask="url(#mask0_574_516)">
<path d="M-1.04175 18.2292V4.6875L7.81242 11.4583L-1.04175 18.2292Z" fill="#FBBC05"/>
</g>
<mask id="mask1_574_516" style="mask-type:luminance" maskUnits="userSpaceOnUse" x="0" y="0" width="23" height="23">
<path d="M22.1354 9.375H11.4583V13.8021H17.6042C17.0312 16.6146 14.6354 18.2292 11.4583 18.2292C7.70833 18.2292 4.6875 15.2083 4.6875 11.4583C4.6875 7.70833 7.70833 4.6875 11.4583 4.6875C13.0729 4.6875 14.5312 5.26042 15.6771 6.19792L19.0104 2.86458C16.9792 1.09375 14.375 0 11.4583 0C5.10417 0 0 5.10417 0 11.4583C0 17.8125 5.10417 22.9167 11.4583 22.9167C17.1875 22.9167 22.3958 18.75 22.3958 11.4583C22.3958 10.7813 22.2917 10.0521 22.1354 9.375Z" fill="white"/>
</mask>
<g mask="url(#mask1_574_516)">
<path d="M-1.04175 4.6875L7.81242 11.4583L11.4583 8.28125L23.9583 6.25V-1.04166H-1.04175V4.6875Z" fill="#EA4335"/>
</g>
<mask id="mask2_574_516" style="mask-type:luminance" maskUnits="userSpaceOnUse" x="0" y="0" width="23" height="23">
<path d="M22.1354 9.375H11.4583V13.8021H17.6042C17.0312 16.6146 14.6354 18.2292 11.4583 18.2292C7.70833 18.2292 4.6875 15.2083 4.6875 11.4583C4.6875 7.70833 7.70833 4.6875 11.4583 4.6875C13.0729 4.6875 14.5312 5.26042 15.6771 6.19792L19.0104 2.86458C16.9792 1.09375 14.375 0 11.4583 0C5.10417 0 0 5.10417 0 11.4583C0 17.8125 5.10417 22.9167 11.4583 22.9167C17.1875 22.9167 22.3958 18.75 22.3958 11.4583C22.3958 10.7813 22.2917 10.0521 22.1354 9.375Z" fill="white"/>
</mask>
<g mask="url(#mask2_574_516)">
<path d="M-1.04175 18.2292L14.5833 6.25L18.6978 6.77084L23.9583 -1.04166V23.9583H-1.04175V18.2292Z" fill="#34A853"/>
</g>
<mask id="mask3_574_516" style="mask-type:luminance" maskUnits="userSpaceOnUse" x="0" y="0" width="23" height="23">
<path d="M22.1354 9.375H11.4583V13.8021H17.6042C17.0312 16.6146 14.6354 18.2292 11.4583 18.2292C7.70833 18.2292 4.6875 15.2083 4.6875 11.4583C4.6875 7.70833 7.70833 4.6875 11.4583 4.6875C13.0729 4.6875 14.5312 5.26042 15.6771 6.19792L19.0104 2.86458C16.9792 1.09375 14.375 0 11.4583 0C5.10417 0 0 5.10417 0 11.4583C0 17.8125 5.10417 22.9167 11.4583 22.9167C17.1875 22.9167 22.3958 18.75 22.3958 11.4583C22.3958 10.7813 22.2917 10.0521 22.1354 9.375Z" fill="white"/>
</mask>
<g mask="url(#mask3_574_516)">
<path d="M23.9584 23.9583L7.81258 11.4583L5.72925 9.89583L23.9584 4.6875V23.9583Z" fill="#4285F4"/>
</g>
</svg>
