<svg viewBox="0 0 24 25" fill="none" xmlns="http://www.w3.org/2000/svg">
<path d="M21.6799 17.795L18.5499 10.485C17.4899 8.00497 15.5399 7.90497 14.2299 10.265L12.3399 13.675C11.3799 15.405 9.58993 15.555 8.34993 14.005L8.12993 13.725C6.83993 12.105 5.01993 12.305 4.08993 14.155L2.36993 17.605C1.15993 20.005 2.90993 22.835 5.58993 22.835H18.3499C20.9499 22.835 22.6999 20.185 21.6799 17.795Z" stroke-width="1.5" stroke-linecap="round" stroke-linejoin="round"/>
<path d="M6.96997 8.83496C8.62682 8.83496 9.96997 7.49182 9.96997 5.83496C9.96997 4.17811 8.62682 2.83496 6.96997 2.83496C5.31312 2.83496 3.96997 4.17811 3.96997 5.83496C3.96997 7.49182 5.31312 8.83496 6.96997 8.83496Z" stroke-width="1.5" stroke-linecap="round" stroke-linejoin="round"/>
</svg>
