<svg viewBox="0 0 24 25" fill="none" xmlns="http://www.w3.org/2000/svg">
<path d="M3 9.94495V15.7149C3 17.8349 3 17.8349 5 19.1849L10.5 22.3649C11.33 22.8449 12.68 22.8449 13.5 22.3649L19 19.1849C21 17.8349 21 17.8349 21 15.7249V9.94495C21 7.83495 21 7.83495 19 6.48495L13.5 3.30495C12.68 2.82495 11.33 2.82495 10.5 3.30495L5 6.48495C3 7.83495 3 7.83495 3 9.94495Z" stroke-width="1.5" stroke-linecap="round" stroke-linejoin="round"/>
<path d="M12 15.835C13.6569 15.835 15 14.4918 15 12.835C15 11.1781 13.6569 9.83496 12 9.83496C10.3431 9.83496 9 11.1781 9 12.835C9 14.4918 10.3431 15.835 12 15.835Z" stroke-width="1.5" stroke-linecap="round" stroke-linejoin="round"/>
</svg>
