<svg viewBox="0 0 25 25" fill="none" xmlns="http://www.w3.org/2000/svg">
<path d="M12.3638 2.17499V3.17499" stroke-width="1.5" stroke-linecap="round"/>
<path d="M12.3638 21.175V22.175" stroke-width="1.5" stroke-linecap="round"/>
<path d="M22.3638 12.175H21.3638" stroke-width="1.5" stroke-linecap="round"/>
<path d="M3.36377 12.175H2.36377" stroke-width="1.5" stroke-linecap="round"/>
<path d="M19.4345 5.10468L19.0417 5.49751" stroke-width="1.5" stroke-linecap="round"/>
<path d="M5.68556 18.8527L5.29272 19.2456" stroke-width="1.5" stroke-linecap="round"/>
<path d="M19.4345 19.2453L19.0417 18.8525" stroke-width="1.5" stroke-linecap="round"/>
<path d="M5.68556 5.49727L5.29272 5.10443" stroke-width="1.5" stroke-linecap="round"/>
<path d="M6.70518 10.175C6.48408 10.8006 6.36377 11.4737 6.36377 12.175C6.36377 15.4887 9.05006 18.175 12.3638 18.175C15.6775 18.175 18.3638 15.4887 18.3638 12.175C18.3638 8.86128 15.6775 6.17499 12.3638 6.17499C11.6625 6.17499 10.9894 6.2953 10.3638 6.5164" stroke-width="1.5" stroke-linecap="round"/>
</svg>
