<svg viewBox="0 0 24 25" fill="none" xmlns="http://www.w3.org/2000/svg">
<path d="M4.16989 16.135L8.69989 20.665C10.5599 22.525 13.5799 22.525 15.4499 20.665L19.8399 16.275C21.6999 14.415 21.6999 11.395 19.8399 9.52501L15.2999 5.00501C14.3499 4.05501 13.0399 3.54501 11.6999 3.61501L6.69989 3.85501C4.69989 3.94501 3.10989 5.53501 3.00989 7.52501L2.76989 12.525C2.70989 13.875 3.21989 15.185 4.16989 16.135Z" stroke-width="1.5" stroke-linecap="round" stroke-linejoin="round"/>
<path d="M9.5 12.835C10.8807 12.835 12 11.7157 12 10.335C12 8.95425 10.8807 7.83496 9.5 7.83496C8.11929 7.83496 7 8.95425 7 10.335C7 11.7157 8.11929 12.835 9.5 12.835Z" stroke-width="1.5" stroke-linecap="round"/>
</svg>
