<svg viewBox="0 0 24 25" fill="none" xmlns="http://www.w3.org/2000/svg">
<path d="M22 15.835V9.83496C22 4.83496 20 2.83496 15 2.83496H9C4 2.83496 2 4.83496 2 9.83496V15.835C2 20.835 4 22.835 9 22.835H15C20 22.835 22 20.835 22 15.835Z" stroke-width="1.5" stroke-linecap="round" stroke-linejoin="round"/>
<path d="M2.52002 7.94495H21.48" stroke-width="1.5" stroke-linecap="round" stroke-linejoin="round"/>
<path d="M8.52002 2.94495V7.80495" stroke-width="1.5" stroke-linecap="round" stroke-linejoin="round"/>
<path d="M15.48 2.94495V7.35495" stroke-width="1.5" stroke-linecap="round" stroke-linejoin="round"/>
<path d="M9.75 15.285V14.085C9.75 12.545 10.84 11.915 12.17 12.685L13.21 13.285L14.25 13.885C15.58 14.655 15.58 15.915 14.25 16.685L13.21 17.285L12.17 17.885C10.84 18.655 9.75 18.025 9.75 16.485V15.285V15.285Z" stroke-width="1.5" stroke-miterlimit="10" stroke-linecap="round" stroke-linejoin="round"/>
</svg>
